<svg width="79" height="79" viewBox="0 0 79 79" fill="none" xmlns="http://www.w3.org/2000/svg">
<path d="M59.037 47.23H43.303C43.2754 46.9684 43.2344 46.7084 43.18 46.451C42.601 44.1211 41.2547 42.0538 39.358 40.582V31.482H28.285C27.8956 30.9185 27.5674 30.3151 27.306 29.682C25.6 25.562 27.043 20.909 27.376 16.466C27.393 16.221 27.411 15.985 27.419 15.74H39.358V0H0V78.716H55.818V78.699C56.098 75.707 56.361 72.541 55.04 69.847C53.579 66.865 50.483 65.037 47.781 62.973H59.037V47.23Z" fill="#FCD107"/>
<path d="M27.419 15.743H39.358V0H22.644C25.9278 4.57771 27.6065 10.1124 27.419 15.743Z" fill="#E6E9ED"/>
<path d="M43.276 57.41C44.002 59.772 45.776 61.442 47.776 62.973H59.037V47.23H43.303C43.696 50.597 42.279 54.148 43.276 57.41Z" fill="#CCD1D9"/>
<path d="M39.358 40.5819V31.4819H28.285C30.865 35.3079 35.833 37.5299 39.358 40.5819Z" fill="#DEE0E4"/>
<path d="M27.376 16.4689C27.043 20.9119 25.6 25.5689 27.306 29.6849C27.5674 30.318 27.8956 30.9214 28.285 31.4849H59.037V15.7429H27.419C27.411 15.9879 27.393 16.2239 27.376 16.4689Z" fill="#CCD1D9"/>
<path d="M39.358 40.5821C41.2547 42.0539 42.601 44.1212 43.18 46.4511C43.2344 46.7085 43.2754 46.9685 43.303 47.2301H78.716V31.4861H39.358V40.5821Z" fill="#E6E9ED"/>
<path d="M55.04 69.8469C56.361 72.5409 56.098 75.7069 55.818 78.6989V78.7159H78.718V62.9729H47.781C50.483 65.0369 53.579 66.8649 55.04 69.8469Z" fill="#E6E9ED"/>
</svg>
