<svg width="77" height="80" viewBox="0 0 77 80" fill="none" xmlns="http://www.w3.org/2000/svg">
<path d="M5.43383 -0.367188C4.00662 -0.366101 2.63818 0.201337 1.62899 1.21053C0.619796 2.21972 0.0523561 3.58816 0.0512695 5.01538V74.9846C0.0523561 76.4118 0.619796 77.7803 1.62899 78.7895C2.63818 79.7986 4.00662 80.3661 5.43383 80.3672H52.96C54.3871 80.3661 55.7554 79.7986 56.7645 78.7894C57.7735 77.7802 58.3407 76.4117 58.3415 74.9846V56.3077L49.5149 65.1343L41.3784 66.9641L43.2082 58.8195L58.3415 43.6923V17.161L40.8133 -0.367188H5.43383Z" fill="#E6E9ED"/>
<path d="M40.8134 11.7815C40.8134 13.2091 41.3804 14.5781 42.3899 15.5876C43.3993 16.597 44.7684 17.1641 46.1959 17.1641H58.3446L40.8134 -0.367188V11.7815Z" fill="#CCD1D9"/>
<path d="M43.2082 58.8205L41.3784 66.9651L49.5148 65.1354L58.3415 56.3087L72.7846 41.8657L66.4779 35.5508L43.2082 58.8205Z" fill="#FCD107"/>
<path d="M69.1805 32.8512L66.4779 35.5548L72.7897 41.8665L75.4923 39.163C76.3092 38.3218 76.7623 37.1931 76.7537 36.0206C76.7451 34.8481 76.2756 33.7261 75.4465 32.897C74.6174 32.0679 73.4953 31.5983 72.3229 31.5897C71.1504 31.5812 70.0216 32.0343 69.1805 32.8512Z" fill="#F6BB42"/>
<path d="M26.96 12.3765H13.44C13.0306 12.387 12.6415 12.5569 12.3557 12.8502C12.0698 13.1434 11.9099 13.5367 11.9099 13.9462C11.9099 14.3557 12.0698 14.749 12.3557 15.0423C12.6415 15.3355 13.0306 15.5055 13.44 15.516H26.96C27.1695 15.5213 27.378 15.4847 27.5731 15.4082C27.7682 15.3317 27.9461 15.217 28.0962 15.0707C28.2463 14.9244 28.3655 14.7495 28.447 14.5564C28.5284 14.3633 28.5704 14.1558 28.5704 13.9462C28.5704 13.7366 28.5284 13.5292 28.447 13.3361C28.3655 13.1429 28.2463 12.9681 28.0962 12.8218C27.9461 12.6755 27.7682 12.5607 27.5731 12.4843C27.378 12.4078 27.1695 12.3711 26.96 12.3765Z" fill="#0A1122"/>
<path d="M44.959 23.1529H13.44C13.0306 23.1633 12.6415 23.3333 12.3557 23.6265C12.0698 23.9198 11.9099 24.3131 11.9099 24.7226C11.9099 25.1321 12.0698 25.5254 12.3557 25.8187C12.6415 26.1119 13.0306 26.2819 13.44 26.2923H44.959C45.1685 26.2977 45.3769 26.2611 45.5721 26.1846C45.7672 26.1081 45.9451 25.9933 46.0951 25.847C46.2452 25.7007 46.3645 25.5259 46.4459 25.3328C46.5274 25.1396 46.5693 24.9322 46.5693 24.7226C46.5693 24.513 46.5274 24.3055 46.4459 24.1124C46.3645 23.9193 46.2452 23.7445 46.0951 23.5982C45.9451 23.4519 45.7672 23.3371 45.5721 23.2606C45.3769 23.1841 45.1685 23.1475 44.959 23.1529Z" fill="#0A1122"/>
<path d="M44.959 33.9292H13.44C13.0306 33.9397 12.6415 34.1097 12.3557 34.4029C12.0698 34.6962 11.9099 35.0895 11.9099 35.499C11.9099 35.9085 12.0698 36.3018 12.3557 36.595C12.6415 36.8883 13.0306 37.0582 13.44 37.0687H44.959C45.1685 37.0741 45.3769 37.0374 45.5721 36.9609C45.7672 36.8845 45.9451 36.7697 46.0951 36.6234C46.2452 36.4771 46.3645 36.3022 46.4459 36.1091C46.5274 35.916 46.5693 35.7086 46.5693 35.499C46.5693 35.2894 46.5274 35.0819 46.4459 34.8888C46.3645 34.6957 46.2452 34.5208 46.0951 34.3745C45.9451 34.2282 45.7672 34.1135 45.5721 34.037C45.3769 33.9605 45.1685 33.9239 44.959 33.9292Z" fill="#0A1122"/>
<path d="M44.959 44.7056H13.44C13.0306 44.7161 12.6415 44.886 12.3557 45.1793C12.0698 45.4725 11.9099 45.8658 11.9099 46.2753C11.9099 46.6848 12.0698 47.0782 12.3557 47.3714C12.6415 47.6646 13.0306 47.8346 13.44 47.8451H44.959C45.1685 47.8504 45.3769 47.8138 45.5721 47.7373C45.7672 47.6608 45.9451 47.5461 46.0951 47.3998C46.2452 47.2535 46.3645 47.0786 46.4459 46.8855C46.5274 46.6924 46.5693 46.4849 46.5693 46.2753C46.5693 46.0658 46.5274 45.8583 46.4459 45.6652C46.3645 45.472 46.2452 45.2972 46.0951 45.1509C45.9451 45.0046 45.7672 44.8898 45.5721 44.8134C45.3769 44.7369 45.1685 44.7002 44.959 44.7056Z" fill="#0A1122"/>
<path d="M40.4082 65.8647C39.8016 66.065 39.1501 66.0853 38.5323 65.9232C37.4439 65.7089 36.3199 65.7599 35.2553 66.0719C34.5058 66.375 33.8185 66.8134 33.2277 67.3652C32.9793 67.5848 32.7161 67.787 32.44 67.9704C32.3822 68.0046 32.321 68.0328 32.2574 68.0545C32.3733 67.8678 32.5128 67.6719 32.601 67.5417C33.7066 65.9775 33.7723 64.3437 32.7733 63.2781C32.557 63.0474 32.276 62.8876 31.9672 62.8195C31.6584 62.7514 31.3363 62.7783 31.043 62.8965C30.6396 63.0579 30.2447 63.235 29.8584 63.4278C30.6608 62.3716 31.363 61.243 31.9559 60.0565C33.1743 57.6186 32.9128 55.315 31.2882 54.1858C30.7106 53.8537 30.0668 53.6533 29.4029 53.5989C28.7389 53.5444 28.0711 53.6373 27.4471 53.8709C23.9732 54.9591 20.9537 57.16 18.8545 60.1342C16.7552 63.1083 15.6926 66.6905 15.8307 70.3283C15.8525 70.7296 16.0274 71.1072 16.3194 71.3833C16.6114 71.6594 16.9981 71.813 17.4 71.8124H17.4871C17.6931 71.8006 17.8947 71.7484 18.0805 71.6587C18.2662 71.5689 18.4325 71.4435 18.5698 71.2894C18.707 71.1354 18.8126 70.9559 18.8804 70.761C18.9482 70.5662 18.977 70.3599 18.9651 70.154C18.8842 67.2268 19.7533 64.3521 21.4424 61.9601C23.1315 59.568 25.5498 57.7873 28.3353 56.8842C29.2584 56.6104 29.4892 56.7591 29.4974 56.7652C29.6256 56.8545 29.6605 57.6258 29.1477 58.6534C28.3822 60.1849 27.4043 61.6006 26.243 62.8586C26.0246 63.0945 25.7989 63.3304 25.5702 63.5693C23.9651 65.2463 22.1456 67.1468 22.1784 69.8258C22.1817 70.0782 22.2458 70.3262 22.3652 70.5486C22.4847 70.7711 22.6559 70.9615 22.8646 71.1037C23.7815 71.7283 25.2523 71.7642 26.6328 70.0011C27.3283 69.1124 28.1329 68.3147 29.0277 67.6268C28.8481 68.2456 28.8843 68.9071 29.1302 69.5027C29.2843 69.8757 29.5189 70.2101 29.8171 70.482C30.1153 70.754 30.4698 70.9568 30.8553 71.076C31.3941 71.2341 31.9602 71.277 32.5166 71.2019C33.0731 71.1268 33.6075 70.9354 34.0851 70.6401C34.4949 70.377 34.8843 70.0835 35.2502 69.7622C35.5642 69.4598 35.9247 69.2098 36.3179 69.0217C36.9243 68.9007 37.5488 68.9042 38.1538 69.0319C39.5146 69.352 40.9461 69.1488 42.1641 68.4627C42.5095 68.2304 42.7486 67.8704 42.8286 67.4618C42.9086 67.0533 42.823 66.6297 42.5907 66.2842C42.3584 65.9388 41.9984 65.6997 41.5899 65.6197C41.1813 65.5397 40.7577 65.6252 40.4123 65.8575L40.4082 65.8647Z" fill="#0A1122"/>
</svg>
