<svg width="80" height="80" viewBox="0 0 80 80" fill="none" xmlns="http://www.w3.org/2000/svg">
<path d="M69.3848 0.368318L46.4104 0.0534475C45.0225 0.0346052 43.6449 0.294092 42.3589 0.816581C41.0729 1.33907 39.9047 2.11397 38.9233 3.0955L2.66069 39.3591C1.83367 40.1861 1.17763 41.1678 0.730047 42.2483C0.282462 43.3289 0.0520935 44.487 0.0520935 45.6565C0.0520935 46.8261 0.282462 47.9842 0.730047 49.0647C1.17763 50.1452 1.83367 51.127 2.66069 51.954L28.0463 77.3396C28.8733 78.1666 29.8551 78.8227 30.9356 79.2702C32.0161 79.7178 33.1742 79.9482 34.3438 79.9482C35.5133 79.9482 36.6714 79.7178 37.7519 79.2702C38.8325 78.8227 39.8142 78.1666 40.6412 77.3396L76.9048 41.076C77.8863 40.0945 78.6612 38.9263 79.1837 37.6404C79.7062 36.3544 79.9657 34.9768 79.9468 33.5888L79.632 10.6145C79.5948 7.90841 78.5033 5.32363 76.5895 3.41007C74.6758 1.49651 72.0909 0.405199 69.3848 0.368318Z" fill="#FCD107"/>
<path d="M67.4494 16.8175C69.8058 16.8175 71.7161 14.9073 71.7161 12.5508C71.7161 10.1944 69.8058 8.28418 67.4494 8.28418C65.093 8.28418 63.1827 10.1944 63.1827 12.5508C63.1827 14.9073 65.093 16.8175 67.4494 16.8175Z" fill="white"/>
<path d="M28.4166 31.6565C26.8231 31.6565 25.2949 32.2895 24.1682 33.4163C23.0414 34.543 22.4084 36.0712 22.4084 37.6647C22.4084 39.2582 23.0414 40.7864 24.1682 41.9131C25.2949 43.0399 26.8231 43.6729 28.4166 43.6729C30.0101 43.6729 31.5383 43.0399 32.665 41.9131C33.7918 40.7864 34.4248 39.2582 34.4248 37.6647C34.4248 36.0712 33.7918 34.543 32.665 33.4163C31.5383 32.2895 30.0101 31.6565 28.4166 31.6565ZM28.4166 40.5334C27.8486 40.5334 27.2934 40.365 26.8211 40.0494C26.3488 39.7339 25.9808 39.2854 25.7634 38.7606C25.546 38.2359 25.4892 37.6584 25.6 37.1014C25.7108 36.5443 25.9843 36.0326 26.3859 35.631C26.7876 35.2293 27.2993 34.9558 27.8563 34.845C28.4134 34.7342 28.9908 34.7911 29.5156 35.0084C30.0403 35.2258 30.4888 35.5939 30.8044 36.0661C31.12 36.5384 31.2884 37.0936 31.2884 37.6616C31.2918 38.0398 31.2198 38.4148 31.0767 38.7649C30.9335 39.1149 30.722 39.4329 30.4545 39.7003C30.1871 39.9677 29.869 40.179 29.5189 40.3221C29.1688 40.4651 28.7948 40.537 28.4166 40.5334Z" fill="#0A1122"/>
<path d="M56.2546 31.6565C55.0659 31.6563 53.904 32.0086 52.9156 32.6688C51.9272 33.329 51.1569 34.2675 50.7019 35.3656C50.247 36.4637 50.1279 37.672 50.3597 38.8378C50.5915 40.0036 51.1639 41.0744 52.0044 41.9149C52.8448 42.7554 53.9157 43.3277 55.0814 43.5595C56.2472 43.7914 57.4556 43.6723 58.5536 43.2173C59.6517 42.7624 60.5902 41.992 61.2504 41.0036C61.9107 40.0153 62.263 38.8533 62.2628 37.6647C62.2609 36.0718 61.6272 34.5447 60.5009 33.4184C59.3745 32.292 57.8474 31.6584 56.2546 31.6565ZM56.2546 40.5334C55.6866 40.5334 55.1313 40.365 54.6591 40.0494C54.1868 39.7339 53.8187 39.2854 53.6014 38.7606C53.384 38.2359 53.3271 37.6584 53.4379 37.1014C53.5487 36.5443 53.8223 36.0326 54.2239 35.631C54.6255 35.2293 55.1372 34.9558 55.6943 34.845C56.2514 34.7342 56.8288 34.7911 57.3535 35.0084C57.8783 35.2258 58.3268 35.5939 58.6424 36.0661C58.9579 36.5384 59.1263 37.0936 59.1263 37.6616C59.1263 38.4233 58.8238 39.1537 58.2852 39.6923C57.7466 40.2309 57.0162 40.5334 56.2546 40.5334Z" fill="#0A1122"/>
<path d="M42.3356 18.3591C41.9194 18.3591 41.5202 18.5245 41.2259 18.8187C40.9317 19.113 40.7663 19.5122 40.7663 19.9284V55.4002C40.761 55.6097 40.7976 55.8181 40.8741 56.0133C40.9506 56.2084 41.0653 56.3863 41.2116 56.5363C41.3579 56.6864 41.5328 56.8057 41.7259 56.8871C41.919 56.9686 42.1265 57.0105 42.3361 57.0105C42.5456 57.0105 42.7531 56.9686 42.9462 56.8871C43.1393 56.8057 43.3142 56.6864 43.4605 56.5363C43.6068 56.3863 43.7216 56.2084 43.798 56.0133C43.8745 55.8181 43.9112 55.6097 43.9058 55.4002V19.9294C43.9059 19.7231 43.8654 19.5189 43.7866 19.3283C43.7077 19.1377 43.592 18.9646 43.4462 18.8187C43.3003 18.6729 43.1272 18.5572 42.9366 18.4784C42.746 18.3995 42.5418 18.359 42.3356 18.3591Z" fill="#0A1122"/>
</svg>
