<svg width="80" height="80" viewBox="0 0 80 80" fill="none" xmlns="http://www.w3.org/2000/svg">
<path d="M71.5642 21.7991H69.0852C67.9198 21.8004 66.8026 22.264 65.9787 23.0882C65.1547 23.9123 64.6914 25.0296 64.6903 26.195V36.6155C64.7008 37.0249 64.8708 37.4139 65.164 37.6998C65.4572 37.9856 65.8505 38.1456 66.2601 38.1456C66.6696 38.1456 67.0629 37.9856 67.3561 37.6998C67.6494 37.4139 67.8193 37.0249 67.8298 36.6155V26.195C67.8301 25.862 67.9624 25.5427 68.1977 25.3072C68.4331 25.0717 68.7522 24.9391 69.0852 24.9386H71.5642C71.9735 24.9281 72.3626 24.7581 72.6485 24.4649C72.9343 24.1716 73.0943 23.7783 73.0943 23.3688C73.0943 22.9593 72.9343 22.566 72.6485 22.2728C72.3626 21.9795 71.9735 21.8095 71.5642 21.7991Z" fill="#0A1122"/>
<path d="M80.4892 23.3691H71.5641V38.4091H80.4892V23.3691Z" fill="#F6BB42"/>
<path d="M52.4175 -0.367188H4.89233C3.46512 -0.366101 2.09667 0.201337 1.08748 1.21053C0.0782922 2.21972 -0.489148 3.58816 -0.490234 5.01538V62.839L17.038 80.3672H52.4175C53.8447 80.3661 55.2131 79.7986 56.2223 78.7895C57.2315 77.7803 57.7989 76.4118 57.8 74.9846V5.01538C57.7989 3.58816 57.2315 2.21972 56.2223 1.21053C55.2131 0.201337 53.8447 -0.366101 52.4175 -0.367188Z" fill="#E6E9ED"/>
<path d="M11.6595 62.8359H-0.489258L17.042 80.3672V68.2185C17.042 66.791 16.4749 65.4219 15.4655 64.4125C14.4561 63.403 13.087 62.8359 11.6595 62.8359Z" fill="#CCD1D9"/>
<path d="M40.0319 71.6011C42.4523 71.6011 44.4144 69.6389 44.4144 67.2185C44.4144 64.7981 42.4523 62.8359 40.0319 62.8359C37.6114 62.8359 35.6493 64.7981 35.6493 67.2185C35.6493 69.6389 37.6114 71.6011 40.0319 71.6011Z" fill="#FCD107"/>
<path d="M26.4155 9.59595H12.8955C12.479 9.59595 12.0796 9.76139 11.7851 10.0559C11.4906 10.3503 11.3252 10.7497 11.3252 11.1662C11.3252 11.5827 11.4906 11.9821 11.7851 12.2765C12.0796 12.571 12.479 12.7365 12.8955 12.7365H26.4155C26.8319 12.7365 27.2313 12.571 27.5258 12.2765C27.8203 11.9821 27.9857 11.5827 27.9857 11.1662C27.9857 10.7497 27.8203 10.3503 27.5258 10.0559C27.2313 9.76139 26.8319 9.59595 26.4155 9.59595Z" fill="#0A1122"/>
<path d="M44.4104 42.6799H12.8955C12.4861 42.6904 12.097 42.8604 11.8112 43.1536C11.5253 43.4469 11.3654 43.8402 11.3654 44.2497C11.3654 44.6592 11.5253 45.0525 11.8112 45.3457C12.097 45.639 12.4861 45.809 12.8955 45.8194H44.4104C44.8197 45.809 45.2088 45.639 45.4947 45.3457C45.7805 45.0525 45.9405 44.6592 45.9405 44.2497C45.9405 43.8402 45.7805 43.4469 45.4947 43.1536C45.2088 42.8604 44.8197 42.6904 44.4104 42.6799Z" fill="#0A1122"/>
<path d="M44.4104 31.6523H12.8955C12.4861 31.6628 12.097 31.8328 11.8112 32.126C11.5253 32.4193 11.3654 32.8126 11.3654 33.2221C11.3654 33.6316 11.5253 34.0249 11.8112 34.3181C12.097 34.6114 12.4861 34.7814 12.8955 34.7918H44.4104C44.8197 34.7814 45.2088 34.6114 45.4947 34.3181C45.7805 34.0249 45.9405 33.6316 45.9405 33.2221C45.9405 32.8126 45.7805 32.4193 45.4947 32.126C45.2088 31.8328 44.8197 31.6628 44.4104 31.6523Z" fill="#0A1122"/>
<path d="M44.4104 20.876H12.8955C12.4861 20.8864 12.097 21.0564 11.8112 21.3497C11.5253 21.6429 11.3654 22.0362 11.3654 22.4457C11.3654 22.8552 11.5253 23.2485 11.8112 23.5418C12.097 23.835 12.4861 24.005 12.8955 24.0155H44.4104C44.8197 24.005 45.2088 23.835 45.4947 23.5418C45.7805 23.2485 45.9405 22.8552 45.9405 22.4457C45.9405 22.0362 45.7805 21.6429 45.4947 21.3497C45.2088 21.0564 44.8197 20.8864 44.4104 20.876Z" fill="#0A1122"/>
<path d="M44.4103 54.241H35.6483C35.2389 54.2514 34.8498 54.4214 34.564 54.7146C34.2781 55.0079 34.1182 55.4012 34.1182 55.8107C34.1182 56.2202 34.2781 56.6135 34.564 56.9068C34.8498 57.2 35.2389 57.37 35.6483 57.3805H44.4103C44.8197 57.37 45.2088 57.2 45.4947 56.9068C45.7805 56.6135 45.9405 56.2202 45.9405 55.8107C45.9405 55.4012 45.7805 55.0079 45.4947 54.7146C45.2088 54.4214 44.8197 54.2514 44.4103 54.241Z" fill="#0A1122"/>
<path d="M71.5641 56.2718L76.0297 63.3251L80.4892 56.2779V38.4092L71.5641 38.4031V56.2718Z" fill="#0A1122"/>
<path d="M76.0266 15.083C75.4405 15.083 74.8602 15.1985 74.3187 15.4228C73.7772 15.6471 73.2852 15.9759 72.8708 16.3904C72.4564 16.8049 72.1277 17.297 71.9035 17.8385C71.6793 18.3801 71.564 18.9605 71.5641 19.5466V23.3692H80.4872V19.5466C80.4874 18.3632 80.0177 17.2282 79.1812 16.3911C78.3447 15.5541 77.21 15.0836 76.0266 15.083Z" fill="#FCD107"/>
</svg>
