<svg width="28" height="28" viewBox="0 0 28 28" fill="none" xmlns="http://www.w3.org/2000/svg">
<path d="M15 5C15 4.44772 14.5523 4 14 4C13.4477 4 13 4.44772 13 5L15 5ZM13.2929 23.7071C13.6834 24.0976 14.3166 24.0976 14.7071 23.7071L21.0711 17.3431C21.4616 16.9526 21.4616 16.3195 21.0711 15.9289C20.6805 15.5384 20.0474 15.5384 19.6569 15.9289L14 21.5858L8.34315 15.9289C7.95262 15.5384 7.31946 15.5384 6.92893 15.9289C6.53841 16.3195 6.53841 16.9526 6.92893 17.3431L13.2929 23.7071ZM13 5L13 23L15 23L15 5L13 5Z" fill="#0A1122"/>
</svg>
