<svg width="24" height="24" viewBox="0 0 24 24" fill="none" xmlns="http://www.w3.org/2000/svg">
<path d="M18.327 22.4998C17.4118 22.4998 16.1262 22.1689 14.2011 21.0936C11.8602 19.781 10.0495 18.5693 7.7212 16.2476C5.47637 14.0046 4.38396 12.5524 2.85505 9.77076C1.12782 6.6301 1.42226 4.98383 1.75139 4.28022C2.14334 3.43928 2.7219 2.9363 3.46971 2.43708C3.89446 2.15884 4.34395 1.92033 4.81248 1.72457C4.85936 1.70441 4.90297 1.68519 4.94188 1.66785C5.17396 1.56332 5.52559 1.40535 5.971 1.5741C6.26825 1.68566 6.53361 1.91395 6.94901 2.32411C7.8009 3.16412 8.96505 5.03492 9.39451 5.95368C9.68285 6.57291 9.87367 6.98166 9.87414 7.44011C9.87414 7.97683 9.60408 8.39074 9.27636 8.83747C9.21494 8.92137 9.15399 9.00153 9.09492 9.07934C8.73813 9.5481 8.65983 9.68357 8.7114 9.92545C8.81596 10.4115 9.59565 11.8586 10.877 13.1369C12.1584 14.4152 13.564 15.1455 14.052 15.2496C14.3043 15.3035 14.4426 15.2219 14.9264 14.8525C14.9958 14.7996 15.0671 14.7447 15.1416 14.6899C15.6414 14.3182 16.0362 14.0552 16.5604 14.0552H16.5632C17.0194 14.0552 17.4099 14.253 18.0569 14.5793C18.9008 15.0049 20.8283 16.1538 21.6736 17.0065C22.0848 17.4209 22.314 17.6852 22.4261 17.982C22.5949 18.4287 22.4359 18.7788 22.3323 19.0132C22.315 19.0521 22.2957 19.0948 22.2756 19.1421C22.0782 19.6097 21.8383 20.0582 21.5587 20.4818C21.0603 21.2271 20.5554 21.8042 19.7124 22.1965C19.2795 22.4012 18.8058 22.5049 18.327 22.4998Z" fill="#0A1122"/>
</svg>
